<svg viewBox="0 0 500 500" xmlns="http://www.w3.org/2000/svg">
<defs>
<linearGradient id="pbg1" x1="0" y1="0" x2="1" y2="1">
<stop offset="0%" stop-color="#eef0fb"/><stop offset="100%" stop-color="#f6f1fb"/>
</linearGradient>
<linearGradient id="pc1" x1="0" y1="0" x2="1" y2="1">
<stop offset="0%" stop-color="#6c63ff"/><stop offset="100%" stop-color="#33e0ff"/>
</linearGradient>
</defs>
<rect width="500" height="500" fill="url(#pbg1)"/>
<g filter="none">
<rect x="90" y="70" width="200" height="280" rx="24" fill="#ffffff" stroke="#e3e0f5" stroke-width="2"/>
<rect x="115" y="100" width="90" height="12" rx="6" fill="#c9c2f2"/>
<rect x="115" y="126" width="150" height="9" rx="4.5" fill="#eceafa"/>
<rect x="115" y="144" width="120" height="9" rx="4.5" fill="#eceafa"/>
<circle cx="140" cy="200" r="26" fill="url(#pc1)"/>
<rect x="176" y="188" width="90" height="10" rx="5" fill="#eceafa"/>
<rect x="176" y="205" width="60" height="8" rx="4" fill="#eceafa"/>
<rect x="115" y="250" width="150" height="46" rx="12" fill="#f2f0fc"/>
<rect x="115" y="310" width="150" height="16" rx="8" fill="url(#pc1)"/>
</g>
<g transform="translate(250,150)">
<rect width="180" height="240" rx="22" fill="#151327"/>
<rect x="18" y="24" width="144" height="26" rx="8" fill="#26224a"/>
<circle cx="34" cy="37" r="6" fill="url(#pc1)"/>
<rect x="50" y="33" width="70" height="8" rx="4" fill="#3a3564"/>
<rect x="18" y="64" width="144" height="70" rx="12" fill="#26224a"/>
<circle cx="90" cy="99" r="24" fill="url(#pc1)" opacity="0.85"/>
<rect x="18" y="146" width="68" height="60" rx="10" fill="#26224a"/>
<rect x="94" y="146" width="68" height="60" rx="10" fill="#26224a"/>
<rect x="18" y="216" width="144" height="10" rx="5" fill="#3a3564"/>
</g>
</svg>
