<svg viewBox="0 0 400 300" xmlns="http://www.w3.org/2000/svg">
<defs>
<linearGradient id="bg1" x1="0" y1="0" x2="1" y2="1">
<stop offset="0%" stop-color="#f5f0fd"/><stop offset="100%" stop-color="#e9defa"/>
</linearGradient>
<linearGradient id="ic1" x1="0" y1="0" x2="1" y2="1">
<stop offset="0%" stop-color="#b0339f"/><stop offset="100%" stop-color="#8b5cf6"/>
</linearGradient>
</defs>
<rect width="400" height="300" fill="url(#bg1)"/>
<circle cx="80" cy="60" r="3" fill="#ffffff" opacity="0.7"/>
<circle cx="340" cy="230" r="3" fill="#ffffff" opacity="0.7"/>
<circle cx="350" cy="50" r="5" fill="#ffffff" opacity="0.5"/>

<g transform="translate(162,112)" >
<rect x="14" y="14" width="48" height="48" rx="10" fill="url(#ic1)"/>
<rect x="26" y="26" width="24" height="24" rx="5" fill="#fff" opacity="0.9"/>
<g stroke="url(#ic1)" stroke-width="3" stroke-linecap="round">
<line x1="30" y1="0" x2="30" y2="14"/><line x1="46" y1="0" x2="46" y2="14"/>
<line x1="30" y1="62" x2="30" y2="76"/><line x1="46" y1="62" x2="46" y2="76"/>
<line x1="0" y1="30" x2="14" y2="30"/><line x1="0" y1="46" x2="14" y2="46"/>
<line x1="62" y1="30" x2="76" y2="30"/><line x1="62" y1="46" x2="76" y2="46"/>
</g>
</g>
</svg>