<svg viewBox="0 0 400 300" xmlns="http://www.w3.org/2000/svg">
<defs>
<linearGradient id="bg2" x1="0" y1="0" x2="1" y2="1">
<stop offset="0%" stop-color="#1c1015"/><stop offset="100%" stop-color="#2a1408"/>
</linearGradient>
<linearGradient id="c2" x1="0" y1="0" x2="1" y2="1">
<stop offset="0%" stop-color="#ff9f7a"/><stop offset="100%" stop-color="#ffd166"/>
</linearGradient>
</defs>
<rect width="400" height="300" fill="url(#bg2)"/>
<rect x="40" y="40" width="140" height="90" rx="12" fill="#1e1b34" stroke="#403a63" stroke-width="1"/>
<rect x="54" y="54" width="60" height="8" rx="4" fill="url(#c2)"/>
<rect x="54" y="70" width="90" height="6" rx="3" fill="#3a3555"/>
<rect x="54" y="84" width="70" height="6" rx="3" fill="#3a3555"/>
<rect x="220" y="90" width="150" height="150" rx="16" fill="#191631" stroke="#443c6e" stroke-width="1"/>
<circle cx="295" cy="140" r="26" fill="url(#c2)" opacity="0.85"/>
<rect x="240" y="185" width="110" height="10" rx="5" fill="#3a3555"/>
<rect x="240" y="203" width="80" height="10" rx="5" fill="#3a3555"/>
<rect x="50" y="170" width="120" height="80" rx="14" fill="#1a1830" stroke="#3d3763" stroke-width="1"/>
<circle cx="80" cy="200" r="14" fill="#33e0ff" opacity="0.8"/>
<rect x="105" y="193" width="55" height="7" rx="3.5" fill="#3a3555"/>
<rect x="105" y="207" width="40" height="7" rx="3.5" fill="#3a3555"/>
</svg>
