<svg viewBox="0 0 400 300" xmlns="http://www.w3.org/2000/svg">
<defs>
<linearGradient id="bg5" x1="0" y1="0" x2="1" y2="1">
<stop offset="0%" stop-color="#0a0e1a"/><stop offset="100%" stop-color="#101b2e"/>
</linearGradient>
<linearGradient id="c5" x1="0" y1="0" x2="1" y2="0">
<stop offset="0%" stop-color="#33e0ff"/><stop offset="100%" stop-color="#6c63ff"/>
</linearGradient>
</defs>
<rect width="400" height="300" fill="url(#bg5)"/>
<rect x="30" y="30" width="340" height="240" rx="16" fill="#111629" stroke="#25304a" stroke-width="1.5"/>
<rect x="30" y="30" width="340" height="34" rx="16" fill="#151b31"/>
<circle cx="52" cy="47" r="4" fill="#ff6f6f"/><circle cx="66" cy="47" r="4" fill="#ffd166"/><circle cx="80" cy="47" r="4" fill="#4dd68a"/>
<rect x="52" y="86" width="150" height="60" rx="10" fill="#1a2140"/>
<path d="M56 130 L80 110 L104 122 L128 96 L152 116 L176 100 L196 118" fill="none" stroke="url(#c5)" stroke-width="2.5"/>
<rect x="220" y="86" width="120" height="60" rx="10" fill="#1a2140"/>
<circle cx="280" cy="116" r="24" fill="none" stroke="url(#c5)" stroke-width="6"/>
<rect x="52" y="160" width="288" height="70" rx="10" fill="#1a2140"/>
<rect x="66" y="176" width="60" height="8" rx="4" fill="#33e0ff" opacity="0.8"/>
<rect x="66" y="192" width="90" height="8" rx="4" fill="#2c3760"/>
<rect x="66" y="208" width="70" height="8" rx="4" fill="#2c3760"/>
</svg>
